<svg xmlns="http://www.w3.org/2000/svg" version="1.1" width="1024" height="512">
<rect x="0" y="0" width="1024" height="512" fill="#533017" />
<g transform="scale(4.0) translate(0.5 0.5)">
<polygon fill="#ce7b29" fill-opacity="0.4" points="121,6 248,82 271,-15" />
<polygon fill="#151215" fill-opacity="0.5" points="88,143 99,-16 -16,10" />
<polygon fill="#703f1b" fill-opacity="0.7" points="118,-16 139,83 271,81" />
<polygon fill="#3d1f11" fill-opacity="0.7" points="-16,41 271,124 60,142" />
<polygon fill="#b16a24" fill-opacity="0.6" points="163,-12 247,40 271,2" />
<polygon fill="#231c17" fill-opacity="0.6" points="1,-16 -16,101 75,20" />
<polygon fill="#522c17" fill-opacity="0.4" points="87,-16 202,126 84,81" />
<polygon fill="#2e2211" fill-opacity="0.5" points="271,127 165,128 251,94" />
<polygon fill="#7c240f" fill-opacity="0.3" points="77,143 31,89 -16,123" />
<polygon fill="#804b1e" fill-opacity="0.5" points="271,69 168,60 137,-16" />
<polygon fill="#653717" fill-opacity="0.3" points="136,113 271,73 116,31" />
<polygon fill="#392216" fill-opacity="0.3" points="104,-16 117,123 -16,90" />
<polygon fill="#955921" fill-opacity="0.5" points="192,41 271,40 163,-16" />
<polygon fill="#4a3a25" fill-opacity="0.2" points="163,6 50,-16 105,51" />
<polygon fill="#4c3617" fill-opacity="0.2" points="271,38 270,108 143,117" />
<polygon fill="#502412" fill-opacity="0.4" points="-16,73 67,92 65,143" />
<polygon fill="#361c10" fill-opacity="0.6" points="76,143 90,100 175,143" />
<polygon fill="#b66c25" fill-opacity="0.5" points="216,3 252,-16 271,24" />
<polygon fill="#7b471e" fill-opacity="0.2" points="143,-16 151,55 236,78" />
<polygon fill="#251e19" fill-opacity="0.4" points="-16,3 63,82 68,-14" />
<polygon fill="#5f361a" fill-opacity="0.5" points="110,-16 137,8 131,78" />
<polygon fill="#472713" fill-opacity="0.4" points="271,92 177,128 117,106" />
<polygon fill="#722e14" fill-opacity="0.4" points="46,143 -8,143 -16,83" />
<polygon fill="#76491d" fill-opacity="0.4" points="271,52 271,78 186,52" />
<polygon fill="#5e2d15" fill-opacity="0.3" points="225,84 118,56 121,104" />
<polygon fill="#3b2013" fill-opacity="0.4" points="104,52 90,111 -16,67" />
<polygon fill="#844e1f" fill-opacity="0.5" points="145,-16 173,31 232,57" />
<polygon fill="#342c1e" fill-opacity="0.2" points="91,-6 90,63 17,-16" />
<polygon fill="#241d17" fill-opacity="0.7" points="51,-7 -14,2 5,57" />
<polygon fill="#5c3b1a" fill-opacity="0.4" points="271,91 181,83 246,71" />
<polygon fill="#6d3b1b" fill-opacity="0.3" points="144,78 128,-15 189,65" />
<polygon fill="#975a21" fill-opacity="0.6" points="200,25 255,42 177,-8" />
<polygon fill="#302011" fill-opacity="0.5" points="271,101 205,130 262,143" />
<polygon fill="#5b2813" fill-opacity="0.4" points="34,96 -16,88 63,143" />
<polygon fill="#2d1c13" fill-opacity="0.4" points="34,76 -16,46 73,45" />
<polygon fill="#522b15" fill-opacity="0.5" points="196,89 196,104 144,112" />
<polygon fill="#432113" fill-opacity="0.4" points="67,89 -16,62 -16,85" />
<polygon fill="#3d2614" fill-opacity="0.4" points="161,125 271,112 218,101" />
<polygon fill="#8c5921" fill-opacity="0.2" points="271,19 271,71 219,40" />
<polygon fill="#75451e" fill-opacity="0.3" points="138,24 196,55 143,-16" />
<polygon fill="#412717" fill-opacity="0.4" points="106,81 100,13 75,48" />
<polygon fill="#4b2714" fill-opacity="0.4" points="109,101 98,56 166,118" />
<polygon fill="#a56224" fill-opacity="0.3" points="265,13 195,4 269,43" />
<polygon fill="#431f10" fill-opacity="0.4" points="79,124 48,143 71,94" />
<polygon fill="#302319" fill-opacity="0.4" points="80,7 66,74 56,-8" />
<polygon fill="#54472b" fill-opacity="0.0" points="59,-16 140,48 153,-2" />
<polygon fill="#6a421c" fill-opacity="0.3" points="218,79 173,59 271,65" />
<polygon fill="#4a3017" fill-opacity="0.5" points="245,104 208,96 271,91" />
<polygon fill="#7b4b1d" fill-opacity="0.3" points="271,68 248,46 208,53" />
<polygon fill="#502614" fill-opacity="0.4" points="-16,78 71,132 44,95" />
<polygon fill="#7c4b21" fill-opacity="0.3" points="134,1 166,13 188,-16" />
<polygon fill="#3e2112" fill-opacity="0.5" points="150,130 78,75 100,111" />
<polygon fill="#371f14" fill-opacity="0.4" points="73,73 -16,56 23,77" />
<polygon fill="#26201b" fill-opacity="0.4" points="58,-16 43,19 -16,2" />
<polygon fill="#5f3117" fill-opacity="0.3" points="130,68 206,84 143,90" />
<polygon fill="#331b11" fill-opacity="0.5" points="87,143 156,143 93,113" />
<polygon fill="#542b16" fill-opacity="0.2" points="108,83 169,115 105,31" />
<polygon fill="#5d2914" fill-opacity="0.4" points="6,93 46,115 -16,111" />
<polygon fill="#633418" fill-opacity="0.3" points="119,9 177,86 135,73" />
<polygon fill="#a96424" fill-opacity="0.4" points="229,16 206,-5 271,20" />
<polygon fill="#56351b" fill-opacity="0.4" points="116,38 126,7 110,-16" />
<polygon fill="#703015" fill-opacity="0.6" points="14,121 37,143 -16,119" />
<polygon fill="#9c5d22" fill-opacity="0.5" points="271,30 221,30 190,8" />
<polygon fill="#b76d27" fill-opacity="0.3" points="271,-3 201,-15 252,9" />
<polygon fill="#362215" fill-opacity="0.5" points="85,22 56,78 86,82" />
<polygon fill="#8c5221" fill-opacity="0.3" points="159,-10 184,31 188,-9" />
<polygon fill="#462b14" fill-opacity="0.4" points="241,96 222,110 186,107" />
<polygon fill="#662d14" fill-opacity="0.2" points="17,143 7,102 37,119" />
<polygon fill="#79441c" fill-opacity="0.5" points="176,52 211,61 158,25" />
<polygon fill="#452d1a" fill-opacity="0.5" points="105,14 91,-14 97,42" />
<polygon fill="#5e3919" fill-opacity="0.4" points="184,86 257,82 202,69" />
<polygon fill="#6c3a19" fill-opacity="0.4" points="207,71 167,74 140,41" />
<polygon fill="#3f2112" fill-opacity="0.4" points="120,127 174,143 209,113" />
<polygon fill="#5a2f17" fill-opacity="0.3" points="158,92 127,92 115,39" />
<polygon fill="#392618" fill-opacity="0.4" points="87,13 85,47 75,22" />
<polygon fill="#301f15" fill-opacity="0.4" points="21,65 74,39 68,68" />
<polygon fill="#542c15" fill-opacity="0.4" points="186,90 147,102 193,103" />
<polygon fill="#472314" fill-opacity="0.5" points="61,105 42,83 -7,79" />
<polygon fill="#73461c" fill-opacity="0.3" points="196,60 271,57 231,70" />
<polygon fill="#945921" fill-opacity="0.4" points="251,31 271,51 219,27" />
<polygon fill="#844d1d" fill-opacity="0.4" points="216,52 212,35 186,41" />
<polygon fill="#271b15" fill-opacity="0.5" points="-16,50 53,46 22,27" />
<polygon fill="#68411b" fill-opacity="0.5" points="265,80 259,68 223,68" />
<polygon fill="#6f401c" fill-opacity="0.4" points="142,30 165,48 140,-9" />
<polygon fill="#302720" fill-opacity="0.1" points="18,-13 71,26 81,-16" />
<polygon fill="#4c2a17" fill-opacity="0.4" points="117,82 99,56 109,38" />
<polygon fill="#2e1e11" fill-opacity="0.6" points="235,122 239,143 269,122" />
<polygon fill="#3e2113" fill-opacity="0.4" points="83,97 -16,73 40,70" />
<polygon fill="#5d3b1d" fill-opacity="0.4" points="131,-16 125,29 116,-10" />
<polygon fill="#663c1c" fill-opacity="0.4" points="126,-10 138,50 143,16" />
<polygon fill="#3b2613" fill-opacity="0.4" points="271,102 243,119 203,116" />
<polygon fill="#4e3217" fill-opacity="0.4" points="253,98 228,96 271,83" />
<polygon fill="#905520" fill-opacity="0.4" points="193,29 208,28 179,1" />
<polygon fill="#3c2214" fill-opacity="0.4" points="85,51 77,81 98,108" />
<polygon fill="#482513" fill-opacity="0.4" points="158,116 104,85 137,118" />
<polygon fill="#85511f" fill-opacity="0.4" points="267,47 227,45 261,57" />
<polygon fill="#80491e" fill-opacity="0.3" points="154,3 176,43 206,49" />
<polygon fill="#422513" fill-opacity="0.5" points="182,111 207,116 154,124" />
<polygon fill="#955821" fill-opacity="0.2" points="210,-16 198,15 149,-16" />
<polygon fill="#3a1e11" fill-opacity="0.5" points="98,112 59,73 82,126" />
<polygon fill="#74451e" fill-opacity="0.3" points="159,38 157,4 133,-16" />
<polygon fill="#422616" fill-opacity="0.4" points="88,67 98,29 101,90" />
<polygon fill="#2c2017" fill-opacity="0.4" points="55,10 73,44 43,28" />
<polygon fill="#572914" fill-opacity="0.4" points="43,103 48,123 7,94" />
<polygon fill="#8b521f" fill-opacity="0.4" points="208,44 229,43 188,22" />
<polygon fill="#563018" fill-opacity="0.5" points="120,69 113,27 124,38" />
<polygon fill="#4c311d" fill-opacity="0.4" points="115,-15 108,29 96,-16" />
<polygon fill="#653719" fill-opacity="0.5" points="211,77 148,79 173,68" />
<polygon fill="#442111" fill-opacity="0.5" points="72,116 58,96 62,135" />
<polygon fill="#7c4a1f" fill-opacity="0.4" points="153,11 147,-16 171,16" />
<polygon fill="#5c3919" fill-opacity="0.5" points="252,85 267,74 225,82" />
<polygon fill="#68421f" fill-opacity="0.4" points="136,9 157,-16 111,-16" />
<polygon fill="#a15f22" fill-opacity="0.5" points="216,19 192,-1 247,22" />
<polygon fill="#5e3517" fill-opacity="0.3" points="186,76 205,89 156,84" />
<polygon fill="#4e2614" fill-opacity="0.4" points="31,88 13,89 54,114" />
<polygon fill="#603218" fill-opacity="0.5" points="150,72 126,45 133,77" />
<polygon fill="#432314" fill-opacity="0.5" points="102,93 125,102 124,112" />
<polygon fill="#542513" fill-opacity="0.3" points="-16,77 -16,101 17,101" />
<polygon fill="#693e1a" fill-opacity="0.5" points="210,75 186,69 230,68" />
<polygon fill="#4e2d15" fill-opacity="0.4" points="209,91 193,107 174,102" />
<polygon fill="#4b2412" fill-opacity="0.4" points="49,98 53,124 72,143" />
<polygon fill="#442313" fill-opacity="0.4" points="49,84 61,99 28,84" />
<polygon fill="#563316" fill-opacity="0.4" points="236,89 202,83 180,97" />
<polygon fill="#693718" fill-opacity="0.4" points="182,70 155,68 135,50" />
<polygon fill="#5a2f15" fill-opacity="0.4" points="161,86 146,91 174,98" />
<polygon fill="#442917" fill-opacity="0.4" points="98,20 101,72 92,46" />
<polygon fill="#341e14" fill-opacity="0.4" points="8,58 -16,75 28,64" />
<polygon fill="#8f5720" fill-opacity="0.4" points="271,46 234,42 248,36" />
<polygon fill="#643619" fill-opacity="0.4" points="142,41 132,33 140,72" />
<polygon fill="#74401c" fill-opacity="0.4" points="150,12 158,46 184,54" />
<polygon fill="#7e4d1e" fill-opacity="0.4" points="240,59 244,51 271,59" />
<polygon fill="#3f2914" fill-opacity="0.5" points="242,101 271,111 211,113" />
<polygon fill="#8b5321" fill-opacity="0.4" points="166,-16 174,10 190,20" />
<polygon fill="#703e1a" fill-opacity="0.4" points="151,43 209,64 178,66" />
<polygon fill="#342418" fill-opacity="0.4" points="65,24 80,10 83,25" />
<polygon fill="#2a1d15" fill-opacity="0.4" points="55,31 8,51 47,53" />
<polygon fill="#472d15" fill-opacity="0.4" points="233,106 261,97 218,99" />
<polygon fill="#a76424" fill-opacity="0.4" points="194,-16 229,19 216,-16" />
<polygon fill="#231b17" fill-opacity="0.4" points="6,8 27,31 -16,48" />
<polygon fill="#3c2718" fill-opacity="0.4" points="83,51 83,23 94,45" />
<polygon fill="#4a2815" fill-opacity="0.4" points="134,108 112,90 104,66" />
<polygon fill="#5b3619" fill-opacity="0.5" points="208,81 224,84 189,90" />
<polygon fill="#3c2013" fill-opacity="0.5" points="55,85 73,107 101,100" />
<polygon fill="#361f14" fill-opacity="0.3" points="8,69 79,60 65,80" />
<polygon fill="#2c221b" fill-opacity="0.4" points="41,-7 64,-16 61,24" />
<polygon fill="#5a3319" fill-opacity="0.4" points="123,48 126,35 116,21" />
<polygon fill="#482a14" fill-opacity="0.4" points="203,111 175,106 227,100" />
<polygon fill="#5d2b14" fill-opacity="0.4" points="38,120 -3,101 26,103" />
<polygon fill="#442314" fill-opacity="0.5" points="36,84 2,76 12,85" />
<polygon fill="#272019" fill-opacity="0.5" points="54,14 14,-16 26,6" />
<polygon fill="#3a291b" fill-opacity="0.4" points="99,-16 74,3 78,16" />
<polygon fill="#3f2111" fill-opacity="0.4" points="130,127 166,128 104,109" />
<polygon fill="#362011" fill-opacity="0.5" points="236,120 204,143 190,123" />
<polygon fill="#925720" fill-opacity="0.5" points="216,36 200,26 227,32" />
<polygon fill="#4f2e19" fill-opacity="0.5" points="118,50 108,20 106,50" />
<polygon fill="#643b1a" fill-opacity="0.4" points="234,72 185,73 208,80" />
<polygon fill="#a46424" fill-opacity="0.3" points="252,21 266,2 256,33" />
<polygon fill="#652d14" fill-opacity="0.4" points="-8,105 -16,115 23,114" />
<polygon fill="#231e19" fill-opacity="0.4" points="4,28 -16,16 19,-16" />
<polygon fill="#52351d" fill-opacity="0.4" points="118,15 96,-16 115,-16" />
<polygon fill="#322116" fill-opacity="0.5" points="56,56 74,61 73,37" />
<polygon fill="#34281d" fill-opacity="0.3" points="68,-16 74,6 58,6" />
<polygon fill="#3c2313" fill-opacity="0.4" points="204,126 215,113 195,119" />
<polygon fill="#925822" fill-opacity="0.2" points="223,-16 165,-13 182,10" />
<polygon fill="#9e5d22" fill-opacity="0.4" points="186,-15 215,15 199,9" />
<polygon fill="#2d1c14" fill-opacity="0.5" points="41,48 42,63 -4,55" />
<polygon fill="#492413" fill-opacity="0.4" points="-16,78 -8,90 26,87" />
<polygon fill="#4a2613" fill-opacity="0.5" points="145,107 176,109 164,116" />
<polygon fill="#4f2914" fill-opacity="0.4" points="177,105 133,102 154,110" />
<polygon fill="#3c1d10" fill-opacity="0.4" points="79,107 84,143 64,143" />
<polygon fill="#623d1b" fill-opacity="0.4" points="234,77 253,80 271,70" />
<polygon fill="#402312" fill-opacity="0.4" points="104,100 96,84 108,87" />
<polygon fill="#542b15" fill-opacity="0.5" points="128,87 118,84 132,76" />
<polygon fill="#885321" fill-opacity="0.2" points="252,48 224,38 211,46" />
<polygon fill="#864d1e" fill-opacity="0.4" points="206,38 182,32 167,16" />
<polygon fill="#ae6825" fill-opacity="0.4" points="247,13 257,8 224,-5" />
<polygon fill="#642b13" fill-opacity="0.5" points="23,112 37,132 12,112" />
<polygon fill="#6e441b" fill-opacity="0.4" points="260,70 253,64 234,69" />
<polygon fill="#71421a" fill-opacity="0.5" points="222,62 196,65 199,57" />
<polygon fill="#6b3a1a" fill-opacity="0.4" points="152,59 161,50 140,35" />
<polygon fill="#46311e" fill-opacity="0.3" points="93,5 105,7 109,-16" />
<polygon fill="#6e421c" fill-opacity="0.4" points="225,72 226,63 206,64" />
<polygon fill="#603b1d" fill-opacity="0.3" points="128,-10 122,9 134,15" />
<polygon fill="#311d15" fill-opacity="0.4" points="10,62 40,64 34,57" />
<polygon fill="#532712" fill-opacity="0.4" points="65,143 47,112 39,130" />
<polygon fill="#392013" fill-opacity="0.5" points="31,73 12,74 1,66" />
<polygon fill="#3e2a1b" fill-opacity="0.5" points="80,-7 93,-16 93,32" />
<polygon fill="#77481d" fill-opacity="0.4" points="229,65 242,55 216,57" />
<polygon fill="#3a2315" fill-opacity="0.4" points="77,71 87,52 80,50" />
<polygon fill="#6e3b1a" fill-opacity="0.4" points="161,60 184,66 150,39" />
<polygon fill="#452515" fill-opacity="0.5" points="113,94 99,66 97,76" />
<polygon fill="#482916" fill-opacity="0.4" points="97,66 107,69 103,34" />
<polygon fill="#663e1b" fill-opacity="0.4" points="211,74 225,69 242,79" />
<polygon fill="#3a2013" fill-opacity="0.4" points="68,78 57,85 38,73" />
<polygon fill="#553019" fill-opacity="0.4" points="116,30 122,59 112,47" />
<polygon fill="#824d20" fill-opacity="0.4" points="173,17 157,-16 147,-12" />
<polygon fill="#6c401d" fill-opacity="0.4" points="137,20 141,0 151,32" />
<polygon fill="#995c21" fill-opacity="0.4" points="259,31 252,38 230,27" />
<polygon fill="#3e2613" fill-opacity="0.4" points="204,111 198,120 231,113" />
<polygon fill="#713116" fill-opacity="0.5" points="10,125 -16,120 -16,136" />
</g>
</svg>