<svg xmlns="http://www.w3.org/2000/svg" version="1.1" width="1024" height="512">
<rect x="0" y="0" width="1024" height="512" fill="#815b52" />
<g transform="scale(4.0) translate(0.5 0.5)">
<polygon fill="#090000" fill-opacity="0.7" points="271.0,134.7,270.8,98.6,8.7,93.6,-16.0,127.7" />
<polygon fill="#b1b3be" fill-opacity="0.7" points="269.2,25.3,-15.2,42.4,-16.0,0.7,247.9,-16.0" />
<polygon fill="#d65816" fill-opacity="0.7" points="143.8,60.3,-16.0,80.0,243.5,102.1,171.5,14.0" />
<polygon fill="#787e9d" fill-opacity="0.7" points="-4.5,16.8,164.6,28.6,142.3,62.0,-9.1,54.0" />
<polygon fill="#6979aa" fill-opacity="0.7" points="269.4,59.7,196.3,59.0,193.8,30.2,258.5,24.9" />
<polygon fill="#b65622" fill-opacity="0.7" points="17.3,90.1,48.2,34.4,97.9,92.1,27.8,100.5" />
<polygon fill="#85290f" fill-opacity="0.7" points="188.6,18.9,195.4,33.7,162.2,41.1,162.8,24.3" />
<polygon fill="#a13c1e" fill-opacity="0.7" points="269.8,103.3,266.9,74.6,222.4,65.8,177.8,97.3" />
<polygon fill="#c4bdba" fill-opacity="0.7" points="-16.0,1.8,152.5,21.6,271.0,17.4,247.0,-16.0" />
<polygon fill="#1b0405" fill-opacity="0.7" points="271.0,128.0,-16.0,128.4,94.7,90.6,179.0,97.0" />
<polygon fill="#e5711f" fill-opacity="0.7" points="162.3,67.8,24.8,64.3,95.9,91.0,154.5,89.9" />
<polygon fill="#34252c" fill-opacity="0.7" points="208.4,62.4,226.7,70.9,271.0,75.3,264.1,60.4" />
<polygon fill="#d34f19" fill-opacity="0.7" points="149.2,51.0,145.0,92.5,255.5,83.7,153.7,36.8" />
<polygon fill="#833e23" fill-opacity="0.7" points="-12.9,64.7,57.8,57.1,56.0,36.0,-16.0,129.5" />
<polygon fill="#5b4d5b" fill-opacity="0.7" points="137.1,65.1,111.4,66.4,71.5,60.4,142.7,59.0" />
<polygon fill="#7682a7" fill-opacity="0.7" points="42.9,35.5,150.3,31.7,146.9,56.6,85.0,55.4" />
<polygon fill="#381f21" fill-opacity="0.7" points="24.3,73.7,20.3,74.8,31.1,65.9,-16.0,72.4" />
<polygon fill="#140203" fill-opacity="0.7" points="257.9,103.3,230.2,99.1,108.4,121.4,260.1,139.9" />
<polygon fill="#3d2a29" fill-opacity="0.7" points="26.4,97.8,24.5,93.4,10.7,89.6,-16.0,124.2" />
<polygon fill="#717b9b" fill-opacity="0.7" points="38.5,57.6,-7.5,59.0,-9.6,21.7,44.1,36.3" />
<polygon fill="#a8592c" fill-opacity="0.7" points="-16.0,75.7,68.5,71.4,58.7,99.7,33.2,97.4" />
<polygon fill="#e9711c" fill-opacity="0.7" points="110.8,75.7,161.4,55.3,159.4,81.3,92.3,92.3" />
<polygon fill="#341714" fill-opacity="0.7" points="61.5,116.3,135.6,143.0,58.7,96.6,84.5,92.0" />
<polygon fill="#6d362d" fill-opacity="0.7" points="49.9,37.4,62.3,51.2,44.3,51.5,41.1,41.3" />
<polygon fill="#ca5b1f" fill-opacity="0.7" points="103.4,91.9,60.4,88.0,26.7,65.5,48.3,52.6" />
<polygon fill="#8e929a" fill-opacity="0.7" points="152.1,51.5,62.6,56.7,62.0,48.0,57.6,47.3" />
<polygon fill="#59506e" fill-opacity="0.7" points="201.7,56.5,255.3,59.8,210.2,63.2,203.8,59.7" />
<polygon fill="#b24b26" fill-opacity="0.7" points="151.7,40.6,196.4,35.3,162.8,48.9,151.8,26.5" />
<polygon fill="#984a30" fill-opacity="0.7" points="161.4,94.6,183.9,89.8,257.0,89.3,214.9,100.1" />
<polygon fill="#67709f" fill-opacity="0.7" points="193.1,54.4,194.8,32.6,271.0,40.4,197.6,52.8" />
<polygon fill="#873219" fill-opacity="0.7" points="186.5,19.5,161.8,25.1,194.3,37.2,192.5,24.6" />
<polygon fill="#9a5c35" fill-opacity="0.7" points="10.5,82.0,64.0,97.7,50.1,82.4,79.5,74.3" />
<polygon fill="#c0441d" fill-opacity="0.7" points="210.3,65.6,271.0,85.1,198.9,89.6,187.2,46.9" />
<polygon fill="#160404" fill-opacity="0.7" points="41.0,98.6,32.8,98.8,-16.0,122.8,80.4,143.0" />
<polygon fill="#685a69" fill-opacity="0.7" points="26.3,63.4,38.3,57.8,9.6,55.2,-16.0,59.0" />
<polygon fill="#9190a0" fill-opacity="0.7" points="271.0,20.0,271.0,70.3,260.1,29.5,191.9,31.3" />
<polygon fill="#db762d" fill-opacity="0.7" points="71.6,77.2,68.2,63.8,122.4,67.8,115.2,76.5" />
<polygon fill="#b4aaa9" fill-opacity="0.7" points="190.1,18.2,59.2,9.2,131.0,24.2,180.7,21.4" />
<polygon fill="#6d6074" fill-opacity="0.7" points="60.8,54.5,70.9,63.6,137.4,58.4,120.5,59.7" />
<polygon fill="#908f9f" fill-opacity="0.7" points="-16.0,15.9,72.4,32.2,148.2,29.8,96.7,20.1" />
<polygon fill="#8b8d92" fill-opacity="0.7" points="15.2,55.5,40.0,56.6,41.5,49.4,-10.1,48.2" />
<polygon fill="#290f0e" fill-opacity="0.7" points="84.6,93.4,35.5,105.7,160.5,104.6,190.0,96.8" />
<polygon fill="#9e522b" fill-opacity="0.7" points="-16.0,68.1,14.7,101.7,-16.0,93.6,42.4,88.1" />
<polygon fill="#c5bbb4" fill-opacity="0.7" points="40.5,-16.0,152.6,-10.1,62.9,13.8,-16.0,5.2" />
<polygon fill="#763426" fill-opacity="0.7" points="184.9,99.1,218.9,100.4,271.0,98.3,249.7,95.7" />
<polygon fill="#6a4b3a" fill-opacity="0.7" points="54.2,86.1,55.2,92.9,47.7,89.4,38.7,86.6" />
<polygon fill="#ab411b" fill-opacity="0.7" points="192.9,24.2,182.2,30.9,159.0,39.2,194.4,42.3" />
<polygon fill="#b9b7b9" fill-opacity="0.7" points="234.4,23.4,271.0,3.9,186.7,-16.0,192.9,24.1" />
<polygon fill="#6a75a3" fill-opacity="0.7" points="58.2,48.5,61.8,35.0,-16.0,37.5,160.4,38.3" />
<polygon fill="#5a4446" fill-opacity="0.7" points="132.0,65.8,64.8,62.6,127.1,62.0,139.3,63.5" />
<polygon fill="#6372a0" fill-opacity="0.7" points="-15.8,34.9,43.9,39.2,39.2,47.7,-11.4,47.1" />
<polygon fill="#772c19" fill-opacity="0.7" points="192.0,23.3,162.3,30.8,169.2,21.1,190.7,22.2" />
<polygon fill="#b66c33" fill-opacity="0.7" points="69.6,78.7,98.3,72.4,60.3,74.2,16.6,72.8" />
<polygon fill="#d55219" fill-opacity="0.7" points="214.4,66.0,168.3,42.4,151.2,40.5,165.2,86.2" />
<polygon fill="#392a33" fill-opacity="0.7" points="262.5,62.7,271.0,73.2,210.3,65.1,216.2,61.5" />
<polygon fill="#3f3437" fill-opacity="0.7" points="11.2,110.9,19.3,95.7,8.1,96.4,4.6,103.6" />
<polygon fill="#8f9299" fill-opacity="0.7" points="144.9,57.0,149.5,50.7,82.6,49.6,110.6,55.7" />
<polygon fill="#3f2523" fill-opacity="0.7" points="140.6,134.6,98.6,143.0,147.4,143.0,59.3,112.6" />
<polygon fill="#d35a1e" fill-opacity="0.7" points="84.8,72.0,53.8,54.4,54.2,63.9,22.4,72.7" />
<polygon fill="#d86518" fill-opacity="0.7" points="86.3,77.0,133.6,93.8,58.0,85.3,46.3,83.8" />
<polygon fill="#1c0607" fill-opacity="0.7" points="84.4,104.2,56.8,107.0,102.2,123.4,271.0,102.8" />
<polygon fill="#160b0b" fill-opacity="0.7" points="42.3,141.8,-16.0,97.5,6.1,105.4,26.5,135.5" />
<polygon fill="#903e24" fill-opacity="0.7" points="64.1,53.7,43.6,45.6,42.9,47.0,40.7,57.2" />
<polygon fill="#b85928" fill-opacity="0.7" points="24.9,98.8,37.5,84.2,16.8,86.9,58.5,95.4" />
<polygon fill="#2b1412" fill-opacity="0.7" points="21.0,91.2,54.1,133.0,31.5,103.7,5.7,91.4" />
<polygon fill="#882d0f" fill-opacity="0.7" points="186.9,26.7,163.0,33.1,162.4,45.2,162.2,25.4" />
<polygon fill="#732d10" fill-opacity="0.7" points="163.8,97.5,175.4,94.9,147.4,93.7,103.1,91.3" />
<polygon fill="#606d9d" fill-opacity="0.7" points="269.3,53.8,212.3,51.2,227.8,35.4,257.0,35.9" />
<polygon fill="#926f74" fill-opacity="0.7" points="151.7,21.7,159.4,40.9,163.7,22.1,157.3,42.7" />
<polygon fill="#372426" fill-opacity="0.7" points="14.0,71.8,-1.8,68.3,-9.3,75.0,22.8,72.7" />
<polygon fill="#7c7f8f" fill-opacity="0.7" points="261.3,56.0,206.5,50.8,194.4,52.6,207.5,57.2" />
<polygon fill="#ec741b" fill-opacity="0.7" points="159.0,50.6,119.0,91.9,88.6,78.2,133.0,72.6" />
<polygon fill="#b33b1a" fill-opacity="0.7" points="248.5,78.4,269.8,81.5,239.0,90.0,184.3,88.1" />
<polygon fill="#9a5230" fill-opacity="0.7" points="-16.0,61.2,4.3,62.9,32.0,63.2,12.8,69.1" />
<polygon fill="#cb6423" fill-opacity="0.7" points="173.6,93.2,159.9,95.6,119.6,89.3,154.4,86.2" />
<polygon fill="#cb5225" fill-opacity="0.7" points="193.7,74.5,191.2,66.9,224.2,70.9,228.7,76.8" />
<polygon fill="#c04817" fill-opacity="0.7" points="47.5,67.2,32.0,70.7,29.2,62.5,60.7,54.2" />
<polygon fill="#613530" fill-opacity="0.7" points="43.0,46.8,47.1,36.6,56.2,41.2,56.6,43.8" />
<polygon fill="#ac6338" fill-opacity="0.7" points="64.5,97.0,50.5,93.6,67.6,90.7,86.6,87.7" />
<polygon fill="#0a0202" fill-opacity="0.7" points="190.8,140.5,238.4,110.5,271.0,127.9,161.7,125.4" />
<polygon fill="#cec4bb" fill-opacity="0.7" points="21.9,-0.6,61.5,7.5,76.1,4.3,192.7,-12.0" />
<polygon fill="#da591a" fill-opacity="0.7" points="153.1,27.0,153.0,45.6,176.9,77.0,161.7,86.4" />
<polygon fill="#463b54" fill-opacity="0.7" points="271.0,36.6,271.0,59.2,204.2,62.5,260.4,63.3" />
<polygon fill="#92949b" fill-opacity="0.7" points="61.4,56.0,62.5,55.4,106.2,50.9,61.3,48.9" />
<polygon fill="#c64b18" fill-opacity="0.7" points="194.1,34.4,140.5,62.1,175.0,37.1,186.0,67.0" />
<polygon fill="#eb7c26" fill-opacity="0.7" points="134.7,91.9,93.1,65.3,122.3,70.2,112.9,89.6" />
<polygon fill="#84513a" fill-opacity="0.7" points="104.3,64.7,128.1,67.8,133.9,66.2,96.8,63.3" />
<polygon fill="#c2bab8" fill-opacity="0.7" points="191.6,17.7,220.0,17.8,164.9,-7.7,167.2,21.9" />
<polygon fill="#653b22" fill-opacity="0.7" points="265.7,74.4,249.6,72.6,215.5,65.6,233.8,73.6" />
<polygon fill="#b6542e" fill-opacity="0.7" points="206.0,94.5,214.3,96.8,189.0,96.6,213.4,87.0" />
<polygon fill="#270d0c" fill-opacity="0.7" points="62.2,110.3,93.4,143.0,37.5,98.3,123.3,99.7" />
<polygon fill="#341d21" fill-opacity="0.7" points="30.1,68.5,28.5,70.0,21.5,73.3,-14.4,70.1" />
<polygon fill="#93462f" fill-opacity="0.7" points="203.5,93.2,271.0,97.7,257.7,101.4,223.5,97.1" />
<polygon fill="#b16233" fill-opacity="0.7" points="31.7,91.0,29.8,91.0,14.7,91.5,74.4,72.2" />
<polygon fill="#7b7c9d" fill-opacity="0.7" points="263.1,32.8,229.1,28.4,193.9,28.3,193.9,34.9" />
<polygon fill="#a49da2" fill-opacity="0.7" points="115.7,13.5,-2.0,15.9,52.5,18.3,123.1,24.6" />
<polygon fill="#584a58" fill-opacity="0.7" points="33.0,61.6,-16.0,57.1,-11.4,84.7,-12.0,62.0" />
<polygon fill="#6c78a5" fill-opacity="0.7" points="127.2,49.8,43.2,37.1,119.5,37.1,149.5,35.9" />
<polygon fill="#b5adaa" fill-opacity="0.7" points="-16.0,2.6,35.7,14.2,116.8,10.9,62.9,10.4" />
<polygon fill="#3f211e" fill-opacity="0.7" points="97.6,125.2,78.4,121.0,74.0,110.8,59.5,112.3" />
<polygon fill="#afadad" fill-opacity="0.7" points="211.5,25.1,236.9,24.1,271.0,15.2,234.3,14.2" />
<polygon fill="#a85222" fill-opacity="0.7" points="-6.4,72.6,8.8,74.8,57.9,77.4,-16.0,82.6" />
<polygon fill="#8e3215" fill-opacity="0.7" points="185.3,44.5,184.9,39.8,185.5,28.2,170.0,21.7" />
<polygon fill="#bfb4b2" fill-opacity="0.7" points="181.7,21.4,149.9,19.3,136.0,25.6,84.0,-16.0" />
<polygon fill="#b8b9c1" fill-opacity="0.7" points="169.1,-0.7,198.3,6.4,269.3,7.7,271.0,-1.9" />
<polygon fill="#230b0b" fill-opacity="0.7" points="110.6,112.6,100.5,92.2,224.2,102.3,92.3,104.9" />
<polygon fill="#782915" fill-opacity="0.7" points="174.9,22.8,164.6,23.5,180.8,28.5,193.0,22.8" />
<polygon fill="#be5c31" fill-opacity="0.7" points="155.0,29.0,145.5,69.2,155.1,26.1,153.9,82.3" />
<polygon fill="#dd5512" fill-opacity="0.7" points="163.8,53.4,148.3,56.0,144.0,60.6,199.9,55.7" />
<polygon fill="#9b989e" fill-opacity="0.7" points="1.0,13.1,-12.7,26.6,20.6,18.7,87.3,20.0" />
<polygon fill="#e16e24" fill-opacity="0.7" points="58.7,66.8,84.1,71.9,107.1,71.7,99.2,65.4" />
<polygon fill="#8789a3" fill-opacity="0.7" points="153.5,27.8,37.3,24.5,48.7,34.3,143.6,34.1" />
<polygon fill="#62556f" fill-opacity="0.7" points="271.0,61.9,271.0,63.1,267.6,57.3,201.0,59.9" />
<polygon fill="#7f7e9c" fill-opacity="0.7" points="155.0,27.3,161.7,33.1,158.2,37.4,156.0,38.7" />
<polygon fill="#4b2c23" fill-opacity="0.7" points="270.3,69.8,224.2,65.6,212.5,66.3,271.0,75.7" />
<polygon fill="#5e2d20" fill-opacity="0.7" points="54.1,100.3,61.6,98.3,81.2,91.7,47.9,100.0" />
<polygon fill="#652c13" fill-opacity="0.7" points="88.1,93.4,112.0,91.0,99.8,90.3,78.4,97.7" />
<polygon fill="#130203" fill-opacity="0.7" points="18.0,94.0,48.6,143.0,-16.0,122.9,23.5,114.5" />
<polygon fill="#793727" fill-opacity="0.7" points="54.9,49.9,53.5,42.5,40.8,42.6,41.1,47.5" />
<polygon fill="#9e6b4c" fill-opacity="0.7" points="39.4,85.2,49.8,90.6,36.3,89.0,36.6,86.0" />
<polygon fill="#d04a18" fill-opacity="0.7" points="179.7,50.1,191.7,89.2,172.4,83.3,203.4,58.2" />
<polygon fill="#a03f25" fill-opacity="0.7" points="244.2,85.4,261.8,82.3,234.5,99.5,234.6,81.9" />
<polygon fill="#742b18" fill-opacity="0.7" points="175.0,25.0,189.9,26.7,191.2,21.6,186.2,20.0" />
<polygon fill="#1a0707" fill-opacity="0.7" points="81.5,101.4,59.7,108.1,10.7,105.0,27.4,124.9" />
<polygon fill="#8a5436" fill-opacity="0.7" points="23.8,86.0,24.7,86.1,41.8,80.7,17.5,83.7" />
<polygon fill="#8d8d96" fill-opacity="0.7" points="134.3,49.9,147.9,57.1,148.9,52.6,95.1,56.1" />
<polygon fill="#bb542a" fill-opacity="0.7" points="179.0,84.1,158.9,92.5,199.4,96.3,177.3,93.7" />
<polygon fill="#bf5925" fill-opacity="0.7" points="36.7,91.2,56.7,96.7,34.7,96.2,13.6,85.7" />
<polygon fill="#716274" fill-opacity="0.7" points="56.9,42.3,62.4,47.0,62.3,44.6,58.7,51.3" />
<polygon fill="#241616" fill-opacity="0.7" points="22.4,93.1,22.0,96.0,4.2,121.8,27.3,96.0" />
</g>
</svg>