<svg xmlns="http://www.w3.org/2000/svg" version="1.1" width="1024" height="512">
<rect x="0" y="0" width="1024" height="512" fill="#42685b" />
<g transform="scale(4.0) translate(0.5 0.5)">
<polygon fill="#5dbbbc" fill-opacity="0.7" points="235.4,35.3,235.7,-16.0,9.5,-9.8,188.4,72.0" />
<polygon fill="#472d18" fill-opacity="0.7" points="-16.0,143.0,-0.2,62.2,268.9,88.5,265.6,143.0" />
<polygon fill="#936634" fill-opacity="0.7" points="155.0,41.0,194.9,111.6,61.7,76.1,102.5,45.4" />
<polygon fill="#076e74" fill-opacity="0.7" points="-1.8,-16.0,107.7,33.8,44.9,88.7,-16.0,45.0" />
<polygon fill="#009684" fill-opacity="0.7" points="271.0,78.2,250.7,-16.0,178.7,78.1,163.2,42.9" />
<polygon fill="#a6c3d5" fill-opacity="0.7" points="87.9,13.9,145.1,-11.2,232.8,4.6,141.9,17.7" />
<polygon fill="#082928" fill-opacity="0.7" points="216.8,142.1,243.0,79.6,215.6,56.3,191.2,115.2" />
<polygon fill="#082322" fill-opacity="0.7" points="11.9,130.6,16.6,3.4,-16.0,-15.0,-4.5,132.7" />
<polygon fill="#248d93" fill-opacity="0.7" points="57.8,70.9,37.8,11.6,75.6,-0.4,121.4,37.0" />
<polygon fill="#2c1407" fill-opacity="0.7" points="106.4,143.0,88.9,119.8,35.6,114.1,134.8,93.8" />
<polygon fill="#777355" fill-opacity="0.7" points="66.0,68.4,81.3,103.1,46.3,112.8,118.8,31.3" />
<polygon fill="#718c72" fill-opacity="0.7" points="195.8,94.7,120.0,24.1,184.2,74.7,204.7,56.5" />
<polygon fill="#035254" fill-opacity="0.7" points="-4.3,48.6,36.2,86.8,21.7,-16.0,-12.5,86.9" />
<polygon fill="#703b17" fill-opacity="0.7" points="148.5,109.8,160.6,83.8,127.9,78.3,53.5,84.0" />
<polygon fill="#444c43" fill-opacity="0.7" points="72.6,87.6,75.4,69.8,46.5,63.9,23.7,107.0" />
<polygon fill="#14130e" fill-opacity="0.7" points="51.4,142.9,64.8,99.3,79.3,136.0,42.8,117.6" />
<polygon fill="#5a583f" fill-opacity="0.7" points="88.6,143.0,179.1,111.3,189.7,115.2,208.4,76.0" />
<polygon fill="#008384" fill-opacity="0.7" points="96.1,38.7,29.4,26.2,19.6,50.4,65.0,62.9" />
<polygon fill="#20ae9b" fill-opacity="0.7" points="165.0,48.6,201.8,38.3,246.1,-16.0,207.1,61.8" />
<polygon fill="#6eb0ad" fill-opacity="0.7" points="132.3,34.8,130.6,52.5,222.4,7.6,155.9,6.7" />
<polygon fill="#9e8049" fill-opacity="0.7" points="28.0,115.9,41.1,127.7,34.8,143.0,25.4,122.4" />
<polygon fill="#037669" fill-opacity="0.7" points="220.5,58.1,271.0,96.0,253.5,-16.0,229.3,80.6" />
<polygon fill="#111815" fill-opacity="0.7" points="262.3,108.7,154.3,124.5,218.8,101.0,266.8,143.0" />
<polygon fill="#1d0d07" fill-opacity="0.7" points="20.3,89.7,1.8,143.0,-10.8,35.1,23.0,100.7" />
<polygon fill="#6c9076" fill-opacity="0.7" points="91.7,45.0,168.1,49.3,106.8,31.1,107.4,57.2" />
<polygon fill="#6f5b2f" fill-opacity="0.7" points="81.5,143.0,59.3,143.0,85.2,115.9,97.0,113.6" />
<polygon fill="#4a96a1" fill-opacity="0.7" points="138.2,13.2,34.4,27.4,75.7,10.3,114.5,41.1" />
<polygon fill="#294f48" fill-opacity="0.7" points="212.2,50.3,197.0,100.4,225.5,71.7,271.0,99.9" />
<polygon fill="#c8d7e9" fill-opacity="0.7" points="138.7,10.4,151.1,16.7,142.3,-1.9,123.5,9.6" />
<polygon fill="#8c5524" fill-opacity="0.7" points="127.8,51.9,165.2,80.5,73.5,80.5,97.7,92.5" />
<polygon fill="#827b4c" fill-opacity="0.7" points="166.4,125.6,199.7,129.5,118.4,126.4,124.8,132.3" />
<polygon fill="#164242" fill-opacity="0.7" points="49.5,72.4,3.6,51.6,-7.6,46.6,52.3,99.9" />
<polygon fill="#b5cee4" fill-opacity="0.7" points="109.2,19.7,93.0,10.6,97.3,7.2,122.2,8.9" />
<polygon fill="#06b19f" fill-opacity="0.7" points="209.9,48.4,187.4,64.0,185.8,79.7,166.3,50.8" />
<polygon fill="#484b42" fill-opacity="0.7" points="230.2,97.2,226.4,131.3,233.6,113.9,271.0,78.7" />
<polygon fill="#4d220b" fill-opacity="0.7" points="142.0,99.5,111.9,89.1,78.3,99.0,131.5,118.1" />
<polygon fill="#8e8a5d" fill-opacity="0.7" points="163.4,44.5,161.3,76.4,187.6,78.1,131.7,45.2" />
<polygon fill="#4c6a60" fill-opacity="0.7" points="54.4,78.9,30.2,60.0,62.0,65.7,47.1,116.0" />
<polygon fill="#061412" fill-opacity="0.7" points="183.7,143.0,223.3,138.9,229.6,98.5,219.6,95.2" />
<polygon fill="#3e7d7e" fill-opacity="0.7" points="66.4,27.4,35.6,29.3,31.9,12.5,46.0,4.8" />
<polygon fill="#9e723e" fill-opacity="0.7" points="117.2,47.7,76.5,78.7,76.9,61.6,111.2,78.6" />
<polygon fill="#947851" fill-opacity="0.7" points="69.4,93.1,54.6,110.2,43.4,109.4,43.0,110.2" />
<polygon fill="#5bb5a6" fill-opacity="0.7" points="216.9,34.4,196.5,25.3,148.9,27.3,155.7,50.2" />
<polygon fill="#7c7453" fill-opacity="0.7" points="167.0,93.1,182.8,88.1,169.4,108.6,193.4,106.7" />
<polygon fill="#30aa9a" fill-opacity="0.7" points="225.8,32.5,191.6,25.2,222.5,16.8,235.7,20.6" />
<polygon fill="#100e0b" fill-opacity="0.7" points="49.6,110.2,63.1,123.9,81.9,97.4,84.2,114.4" />
<polygon fill="#068777" fill-opacity="0.7" points="225.6,91.5,224.8,75.1,250.3,52.9,244.8,17.1" />
<polygon fill="#cbd8e8" fill-opacity="0.7" points="166.1,3.8,209.8,-16.0,206.5,6.9,143.5,-16.0" />
<polygon fill="#36291d" fill-opacity="0.7" points="67.4,99.1,50.7,119.4,70.8,101.3,65.4,87.7" />
<polygon fill="#1c7985" fill-opacity="0.7" points="19.1,35.4,59.7,8.4,43.8,-7.9,74.7,10.0" />
<polygon fill="#35989c" fill-opacity="0.7" points="105.0,24.0,142.5,29.8,97.5,37.6,107.2,53.1" />
<polygon fill="#342319" fill-opacity="0.7" points="4.1,58.0,10.7,60.5,15.4,73.5,14.1,143.0" />
<polygon fill="#5e4b36" fill-opacity="0.7" points="35.5,106.1,11.8,66.0,47.3,97.1,15.1,103.9" />
<polygon fill="#7cb6b7" fill-opacity="0.7" points="158.4,-16.0,199.2,5.6,169.5,37.0,173.8,-7.7" />
<polygon fill="#9c7a56" fill-opacity="0.7" points="68.5,107.3,71.6,108.2,70.6,90.8,81.2,100.4" />
<polygon fill="#65947b" fill-opacity="0.7" points="67.0,71.6,76.5,57.0,81.0,67.5,93.4,47.9" />
<polygon fill="#736940" fill-opacity="0.7" points="122.0,134.8,152.1,117.3,113.3,131.4,129.5,116.1" />
<polygon fill="#1b0e06" fill-opacity="0.7" points="89.2,126.2,129.3,143.0,104.1,104.5,95.3,123.5" />
<polygon fill="#61a2b0" fill-opacity="0.7" points="106.8,14.9,93.0,26.7,101.9,27.2,66.1,13.5" />
<polygon fill="#64796d" fill-opacity="0.7" points="189.0,63.3,213.0,60.5,196.9,84.2,193.9,108.4" />
<polygon fill="#424d3b" fill-opacity="0.7" points="184.2,81.3,203.7,104.3,198.5,88.7,178.7,114.6" />
<polygon fill="#623817" fill-opacity="0.7" points="131.2,120.3,174.3,101.8,121.5,108.6,122.2,59.6" />
<polygon fill="#088b92" fill-opacity="0.7" points="67.6,29.1,79.3,46.2,82.4,62.8,94.7,28.0" />
<polygon fill="#96733f" fill-opacity="0.7" points="144.0,92.8,152.6,35.4,158.4,75.2,161.1,42.8" />
<polygon fill="#02484f" fill-opacity="0.7" points="33.2,12.3,-15.7,44.3,26.6,-16.0,26.4,-16.0" />
<polygon fill="#020201" fill-opacity="0.7" points="2.7,143.0,-16.0,89.5,-6.0,87.7,8.3,85.8" />
<polygon fill="#675534" fill-opacity="0.7" points="44.1,116.5,82.1,133.9,68.1,143.0,58.8,118.2" />
<polygon fill="#2a2823" fill-opacity="0.7" points="231.7,114.2,271.0,103.9,271.0,72.4,231.2,130.9" />
<polygon fill="#093028" fill-opacity="0.7" points="245.6,82.3,239.5,78.7,227.5,82.5,239.4,97.2" />
<polygon fill="#019c8a" fill-opacity="0.7" points="211.6,39.5,241.3,26.4,238.5,56.3,223.2,58.0" />
<polygon fill="#70a9cc" fill-opacity="0.7" points="41.9,6.3,53.8,8.5,53.5,6.2,47.0,1.3" />
<polygon fill="#807e5b" fill-opacity="0.7" points="93.7,34.1,95.1,34.9,99.0,67.7,94.3,50.0" />
<polygon fill="#2d1e15" fill-opacity="0.7" points="32.6,109.3,46.7,104.0,39.8,124.9,43.6,133.6" />
<polygon fill="#39a9a0" fill-opacity="0.7" points="168.4,22.8,162.3,19.0,162.1,34.3,170.8,70.2" />
<polygon fill="#066668" fill-opacity="0.7" points="24.5,49.7,62.6,70.3,7.0,49.1,38.7,-16.0" />
<polygon fill="#5da7aa" fill-opacity="0.7" points="131.4,57.5,137.7,34.3,123.3,10.5,135.2,12.4" />
<polygon fill="#87784f" fill-opacity="0.7" points="106.9,31.2,108.4,64.5,122.2,34.3,118.2,58.6" />
<polygon fill="#3d1a09" fill-opacity="0.7" points="116.8,134.9,103.9,81.0,119.9,99.3,124.5,114.4" />
<polygon fill="#967142" fill-opacity="0.7" points="92.6,65.6,82.8,49.2,93.4,81.1,99.7,95.9" />
<polygon fill="#0e0e0a" fill-opacity="0.7" points="83.7,120.1,77.8,100.9,69.9,138.0,59.2,105.9" />
<polygon fill="#6ca0b9" fill-opacity="0.7" points="127.6,3.1,95.6,5.2,127.7,10.8,50.0,-16.0" />
<polygon fill="#726034" fill-opacity="0.7" points="86.0,143.0,100.6,134.3,77.6,116.2,74.0,118.4" />
<polygon fill="#9b6936" fill-opacity="0.7" points="158.6,89.1,159.3,91.9,161.0,93.4,146.1,106.5" />
<polygon fill="#52432a" fill-opacity="0.7" points="164.8,125.4,164.0,97.2,124.3,131.3,132.7,113.3" />
<polygon fill="#766b43" fill-opacity="0.7" points="170.8,92.6,190.2,77.8,163.7,77.2,175.3,69.5" />
<polygon fill="#239299" fill-opacity="0.7" points="111.3,30.2,112.0,38.4,117.8,44.3,117.3,19.8" />
<polygon fill="#249595" fill-opacity="0.7" points="218.5,1.4,217.4,-15.8,267.5,-16.0,244.8,2.8" />
<polygon fill="#8c5c2c" fill-opacity="0.7" points="137.3,40.8,153.7,81.9,133.1,85.0,140.0,35.4" />
<polygon fill="#8d7447" fill-opacity="0.7" points="124.5,48.4,124.1,72.1,130.5,48.1,131.7,30.4" />
<polygon fill="#100c0a" fill-opacity="0.7" points="254.9,98.7,259.1,143.0,238.9,136.5,271.0,80.0" />
<polygon fill="#433d32" fill-opacity="0.7" points="77.8,77.4,64.3,67.0,60.0,97.4,38.0,98.6" />
<polygon fill="#81887c" fill-opacity="0.7" points="187.9,82.8,204.1,70.0,195.3,62.8,200.8,84.8" />
<polygon fill="#79afbc" fill-opacity="0.7" points="170.2,5.3,138.5,-0.3,170.0,17.4,126.7,28.2" />
<polygon fill="#5e452f" fill-opacity="0.7" points="26.2,119.2,6.8,119.7,46.5,92.9,15.2,106.0" />
<polygon fill="#336f63" fill-opacity="0.7" points="232.6,61.4,223.8,79.4,241.6,64.1,241.0,76.2" />
<polygon fill="#49b1a4" fill-opacity="0.7" points="186.4,-2.2,200.5,46.2,159.5,46.5,207.0,36.5" />
<polygon fill="#7c4f1f" fill-opacity="0.7" points="106.9,42.1,108.3,62.0,137.7,143.0,116.7,79.5" />
<polygon fill="#29615a" fill-opacity="0.7" points="42.1,61.8,42.1,81.7,30.7,72.7,61.0,63.4" />
<polygon fill="#0c3f40" fill-opacity="0.7" points="38.9,77.6,28.6,85.1,19.1,65.4,16.7,55.1" />
<polygon fill="#9bc5d8" fill-opacity="0.7" points="75.4,16.7,75.5,13.4,70.9,13.3,70.6,16.0" />
<polygon fill="#219297" fill-opacity="0.7" points="97.1,52.9,95.0,27.3,106.7,30.0,107.3,26.3" />
<polygon fill="#4694a8" fill-opacity="0.7" points="74.8,6.5,120.5,-13.7,87.2,15.7,119.1,29.6" />
<polygon fill="#aed0f1" fill-opacity="0.7" points="133.2,0.7,27.5,-14.9,65.8,3.8,65.3,-4.9" />
<polygon fill="#a5824c" fill-opacity="0.7" points="153.9,58.7,144.7,84.5,158.1,59.8,161.5,38.9" />
<polygon fill="#ab9d65" fill-opacity="0.7" points="193.3,129.1,111.1,143.0,162.2,126.3,236.2,136.0" />
<polygon fill="#9d8351" fill-opacity="0.7" points="85.6,88.6,78.2,75.7,72.6,67.0,76.1,56.7" />
<polygon fill="#d4e0f6" fill-opacity="0.7" points="94.7,11.6,112.0,11.2,121.7,11.7,107.4,7.6" />
<polygon fill="#a27a45" fill-opacity="0.7" points="128.3,95.1,110.7,83.1,100.7,41.1,115.2,86.2" />
<polygon fill="#026b5f" fill-opacity="0.7" points="250.0,-0.5,254.6,92.8,271.0,-7.9,240.9,10.0" />
<polygon fill="#4c4b39" fill-opacity="0.7" points="181.5,136.2,196.1,117.0,192.5,115.1,177.5,135.9" />
<polygon fill="#565d49" fill-opacity="0.7" points="242.2,93.1,247.4,79.9,250.8,81.5,246.5,106.7" />
<polygon fill="#745c36" fill-opacity="0.7" points="83.7,109.0,94.1,111.4,64.6,136.4,92.7,115.6" />
<polygon fill="#2a130a" fill-opacity="0.7" points="18.2,118.9,37.6,137.3,5.4,117.2,7.0,143.0" />
<polygon fill="#232519" fill-opacity="0.7" points="167.6,113.8,187.4,114.6,175.3,124.5,163.6,122.5" />
<polygon fill="#0a7b78" fill-opacity="0.7" points="29.2,59.4,28.4,30.2,46.1,26.4,42.8,63.5" />
<polygon fill="#72411d" fill-opacity="0.7" points="104.6,104.8,105.0,89.0,85.7,93.7,83.6,72.2" />
<polygon fill="#605e51" fill-opacity="0.7" points="27.6,84.6,14.1,67.9,22.6,71.6,27.1,85.2" />
<polygon fill="#8c7d53" fill-opacity="0.7" points="172.2,91.4,187.7,95.5,183.5,90.7,161.2,100.9" />
<polygon fill="#7c5022" fill-opacity="0.7" points="162.9,54.3,153.5,73.0,153.0,54.9,147.2,103.2" />
<polygon fill="#08a693" fill-opacity="0.7" points="197.5,56.5,210.0,63.0,206.5,39.8,226.0,38.9" />
<polygon fill="#827c4f" fill-opacity="0.7" points="139.5,126.1,142.9,139.3,141.1,120.6,126.9,129.6" />
<polygon fill="#704219" fill-opacity="0.7" points="117.0,74.6,116.9,37.2,115.4,60.4,131.2,123.8" />
<polygon fill="#533a2a" fill-opacity="0.7" points="82.4,111.7,57.3,84.8,56.6,84.7,69.9,94.7" />
<polygon fill="#1aad97" fill-opacity="0.7" points="171.5,65.9,180.0,72.7,165.5,39.8,169.6,62.9" />
<polygon fill="#294039" fill-opacity="0.7" points="216.3,83.0,192.0,86.5,198.8,91.3,192.6,106.2" />
<polygon fill="#74b9ab" fill-opacity="0.7" points="198.8,16.4,212.8,3.7,220.0,17.8,220.3,18.8" />
<polygon fill="#130a06" fill-opacity="0.7" points="95.2,141.0,99.1,103.6,93.1,115.2,138.5,143.0" />
<polygon fill="#9e814d" fill-opacity="0.7" points="72.4,143.0,27.8,128.6,34.8,119.5,23.7,120.1" />
<polygon fill="#4e260b" fill-opacity="0.7" points="112.4,131.7,138.6,107.3,129.6,87.9,123.4,113.4" />
<polygon fill="#2787a6" fill-opacity="0.7" points="77.8,8.2,62.4,-4.4,45.9,2.7,37.1,-16.0" />
</g>
</svg>